<svg xmlns="http://www.w3.org/2000/svg" viewBox="0 0 245.23 309.45" class="h-14"><g data-name="Calque 2"><path d="M0 225.06a1.48 1.48 0 0 1 2.71-1q27.87 43 76 62.41a102.56 102.56 0 0 0 63.57 4.65c3.34-.8 4.73-2.27 4.68-5.74-.16-9.84 0-19.67-.1-29.51a15.92 15.92 0 0 0-1-5.24q-16.39-45.37-33.02-90.63a5.26 5.26 0 0 0-2.52-2.91c-.15 1.51-.43 3-.43 4.52 0 18.93 0 37.87-.07 56.81 0 4.34.38 7.59 6.06 7 .86-.09 2.74 1.9 2.79 3 .28 6.14.11 12.29.18 18.43 0 3-1.65 3.84-4.17 3.51-3.89-.51-5.05 1.44-4.8 4.88v.5c-.34 12.78-.34 12.85-13.37 12.76-10.93-.08-9.35 1.62-9.54-9.95 0-1 0-2.54.1-3.5.16-3.56-1.55-4.85-5.68-4.76-13 .28-26 0-38.95.19-4.24.08-5.31-1.39-5.3-5.45q.16-91.93 0-183.87c0-4.94 1.73-6.18 6.39-5.76a64.08 64.08 0 0 0 10.73-.05c4.43-.35 5.45 1.56 5.44 5.78q-.18 78.24-.08 156.47c0 7.65 0 7.65 7.57 7.66 4.82 0 9.66-.24 14.47.06 4.28.27 5.44-1.54 5.4-5.52-.15-13.78 0-27.57 0-41.36V60.35c0-6.56 0-6.65 6.51-6.55 11.45.17 8.65-1.83 12.78 8.93 12.45 32.51 24.72 65.1 37.07 97.65.61 1.61 1.33 3.18 2 4.78l1.29-.22c.11-1.65.31-3.31.32-5 0-45.34-.08-90.69.13-136 0-5.12-1.8-7-6.57-7.71-37.75-5.87-71.61 4.08-102 26C26.89 50.55 16.7 62 6.18 72.36a1.51 1.51 0 0 1-2.46-1.65C23.4 31.64 54.39 7 98 1.4c53.9-6.89 98.4 11.67 131.92 54.66 9.32 12 15.12 26 15.27 41.37.24 23.55-6.56 44.19-27.54 58.41a19.73 19.73 0 0 0 2.12 2.59c22.27 19.25 27 44.5 17 71.86-8.67 23.66-25.58 40.89-45.65 55.28-17 12.17-35.39 21.13-56.48 23.3-18.66 1.92-36.76-1-54.34-7.33-21.95-7.92-42.47-18.3-59-35.24C10.1 254.74 2.08 241.42 0 225.06Zm173 50.58c3.32-1.33 5.68-2 7.82-3.17 26.84-14.21 37.66-37.37 37.43-66.76-.08-9.36-4.36-16.18-12.14-20.89-8.28-5-17.49-6.69-27.08-7.32-5-.32-6.6.88-6.55 6.11.25 28.37.11 56.74.13 85.11-.04 1.93.17 3.86.39 6.92Zm0-242c-.18 3-.37 4.73-.38 6.5v85.68c0 7.88.08 8.24 7.72 6.77 6.94-1.34 14.05-2.8 20.46-5.62 9.89-4.36 16-12.51 17.19-23.39a58.18 58.18 0 0 0-8.79-38.08c-8.68-13.88-20.65-23.96-36.2-31.87Z" fill="#007554"></path></g></svg>